<?xml version="1.0" encoding="utf-8"?><!-- Uploaded to: SVG Repo, www.svgrepo.com, Generator: SVG Repo Mixer Tools -->
<svg fill="#000000" width="42px" height="42px" viewBox="0 0 24 24" id="flag-2" data-name="Flat Color" xmlns="http://www.w3.org/2000/svg" class="icon flat-color"><path id="primary" d="M18.55,3.17a1,1,0,0,0-.93-.09l-5,2.08a1,1,0,0,0-.62.92v.33L5.62,9.08a1,1,0,0,0,0,1.84l7,2.92a1,1,0,0,0,.93-.09,1,1,0,0,0,.34-.38l3.73,1.55A1,1,0,0,0,19,14V4A1,1,0,0,0,18.55,3.17Z" style="fill: rgb(0, 0, 0);"></path><path id="secondary" d="M18,22a1,1,0,0,1-1-1V3a1,1,0,0,1,2,0V21A1,1,0,0,1,18,22Z" style="fill: rgb(44, 169, 188);"></path></svg>